# Blender v2.81 (sub 16) OBJ File: ''
# www.blender.org
mtllib window3.mtl
o window2.704
v -4.602532 100.000000 -288.262177
v 4.602532 100.000000 -288.262177
v -4.602532 -85.618729 -288.262177
v -4.602532 -100.000000 -288.262177
v 4.602532 -100.000000 -288.262177
v 4.602532 -85.618729 -288.262177
v -11.696172 86.760315 -288.262177
v -11.696172 100.000000 -288.262177
v 4.602532 86.760315 -288.262177
v -4.602532 86.760315 -288.262177
v -11.696172 -85.618729 -288.262177
v -11.696172 -100.000000 -288.262177
v -11.731961 -100.000000 -288.262177
v -20.937023 -100.000000 -288.262177
v -11.731961 85.618729 -288.262177
v -11.731961 100.000000 -288.262177
v -20.937023 100.000000 -288.262177
v -20.937023 85.618729 -288.262177
v -11.731961 -86.760315 -288.262177
v -20.937023 -86.760315 -288.262177
v -4.602532 100.000000 -99.789497
v -4.602532 100.000000 -88.262184
v 4.602532 100.000000 -88.262184
v 4.602532 100.000000 -99.789497
v -4.602532 -85.618729 -88.262184
v -4.602532 -100.000000 -88.262184
v 4.602532 -100.000000 -88.262184
v 4.602532 -85.618729 -88.262184
v -4.602532 -100.000000 -277.876465
v -4.602532 -100.000000 -288.262177
v 4.602532 -100.000000 -288.262177
v 4.602532 -100.000000 -277.876465
v -4.602532 86.760315 -288.262177
v -4.602532 100.000000 -288.262177
v 4.602532 100.000000 -288.262177
v 4.602532 86.760315 -288.262177
v 8.802532 -89.818726 -95.589500
v 8.802532 -85.618729 -92.462181
v 8.802532 -95.800003 -92.462181
v 8.802532 -95.800003 -99.789497
v -11.696172 -100.000000 -277.876465
v -11.696172 -85.618729 -277.876465
v -11.696172 -85.618729 -288.262177
v -11.696172 -100.000000 -288.262177
v 4.602532 100.000000 -277.876465
v -4.602532 100.000000 -277.876465
v 4.602532 -100.000000 -99.789497
v -4.602532 -100.000000 -99.789497
v 8.802532 -95.800003 -277.876465
v 8.802532 -89.818726 -282.076447
v -11.696172 86.760315 -99.789497
v -11.696172 86.760315 -88.262184
v -11.696172 100.000000 -88.262184
v -11.696172 100.000000 -99.789497
v -11.696172 86.760315 -277.876465
v -11.696172 100.000000 -277.876465
v 8.802532 90.960312 -282.076447
v 8.802532 86.760315 -284.062195
v 8.802532 95.800003 -284.062195
v 8.802532 95.800003 -277.876465
v 4.602532 86.760315 -88.262184
v -4.602532 86.760315 -88.262184
v 4.602532 -85.618729 -288.262177
v -4.602532 -85.618729 -288.262177
v 8.802532 90.960312 -95.589500
v 8.802532 95.800003 -99.789497
v 8.802532 95.800003 -92.462181
v 8.802532 86.760315 -92.462181
v -11.696172 100.000000 -288.262177
v -11.696172 86.760315 -288.262177
v -11.696172 -85.618729 -99.789497
v -11.696172 -85.618729 -88.262184
v -4.602532 86.760315 -277.876465
v -4.602532 -85.618729 -277.876465
v -4.602532 -85.618729 -99.789497
v -4.602532 86.760315 -99.789497
v 8.802532 -85.618729 -284.062195
v 8.802532 -95.800003 -284.062195
v -11.696172 -100.000000 -99.789497
v -11.696172 -100.000000 -88.262184
v 4.602532 -85.618729 -277.876465
v 4.602532 86.760315 -277.876465
v 4.602532 -85.618729 -99.789497
v 4.602532 86.760315 -99.789497
v 8.802532 -95.800003 -92.462181
v 8.802532 -85.618729 -92.462181
v 8.802532 -95.800003 -99.789497
v 8.802532 -89.818726 -95.589500
v 8.802532 -89.818726 -282.076447
v 8.802532 -95.800003 -277.876465
v 8.802532 95.800003 -284.062195
v 8.802532 86.760315 -284.062195
v 8.802532 95.800003 -277.876465
v 8.802532 95.800003 -92.462181
v 8.802532 95.800003 -99.789497
v 8.802532 86.760315 -92.462181
v 8.802532 90.960312 -282.076447
v 8.802532 90.960312 -95.589500
v 8.802532 -85.618729 -284.062195
v 8.802532 -95.800003 -284.062195
v -11.731961 -100.000000 -99.789497
v -11.731961 -100.000000 -88.262184
v -20.937023 -100.000000 -88.262184
v -20.937023 -100.000000 -99.789497
v -11.731961 85.618729 -88.262184
v -11.731961 100.000000 -88.262184
v -20.937023 100.000000 -88.262184
v -20.937023 85.618729 -88.262184
v -11.731961 100.000000 -277.876465
v -11.731961 100.000000 -288.262177
v -20.937023 100.000000 -288.262177
v -20.937023 100.000000 -277.876465
v -11.731961 -86.760315 -288.262177
v -11.731961 -100.000000 -288.262177
v -20.937023 -100.000000 -288.262177
v -20.937023 -86.760315 -288.262177
v -25.137024 89.818726 -95.589500
v -25.137024 85.618729 -92.462181
v -25.137024 95.800003 -92.462181
v -25.137024 95.800003 -99.789497
v -11.731961 85.618729 -277.876465
v -11.731961 85.618729 -288.262177
v -20.937023 -100.000000 -277.876465
v -11.731961 -100.000000 -277.876465
v -20.937023 100.000000 -99.789497
v -11.731961 100.000000 -99.789497
v -25.137024 95.800003 -277.876465
v -25.137024 89.818726 -282.076447
v -11.731961 -86.760315 -99.789497
v -11.731961 -86.760315 -88.262184
v -11.731961 -86.760315 -277.876465
v -25.137024 -90.960312 -282.076447
v -25.137024 -86.760315 -284.062195
v -25.137024 -95.800003 -284.062195
v -25.137024 -95.800003 -277.876465
v -20.937023 -86.760315 -88.262184
v -20.937023 85.618729 -288.262177
v -25.137024 -90.960312 -95.589500
v -25.137024 -95.800003 -99.789497
v -25.137024 -95.800003 -92.462181
v -25.137024 -86.760315 -92.462181
v -11.731961 85.618729 -99.789497
v -25.137024 85.618729 -284.062195
v -25.137024 95.800003 -284.062195
v -20.937023 85.618729 -277.876465
v -20.937023 -86.760315 -277.876465
v -20.937023 85.618729 -99.789497
v -20.937023 -86.760315 -99.789497
v -25.137024 95.800003 -92.462181
v -25.137024 85.618729 -92.462181
v -25.137024 95.800003 -99.789497
v -25.137024 89.818726 -95.589500
v -25.137024 89.818726 -282.076447
v -25.137024 95.800003 -277.876465
v -25.137024 -95.800003 -284.062195
v -25.137024 -86.760315 -284.062195
v -25.137024 -95.800003 -277.876465
v -25.137024 -95.800003 -92.462181
v -25.137024 -95.800003 -99.789497
v -25.137024 -86.760315 -92.462181
v -25.137024 -90.960312 -282.076447
v -25.137024 -90.960312 -95.589500
v -25.137024 85.618729 -284.062195
v -25.137024 95.800003 -284.062195
vt 0.928094 0.000000
vt 1.000000 0.000000
vt 1.000000 1.000000
vt 0.928094 1.000000
vt 0.066198 1.000000
vt 0.000000 1.000000
vt 0.000000 0.000000
vt 0.066198 0.000000
vt 1.000000 1.000000
vt 1.000000 1.000000
vt 1.000000 0.933802
vt 1.000000 0.933802
vt 1.000000 0.071906
vt 1.000000 0.071906
vt 1.000000 0.000000
vt 0.928094 0.000000
vt 1.000000 0.000000
vt 1.000000 1.000000
vt 0.928094 1.000000
vt 0.066198 1.000000
vt 0.000000 1.000000
vt 0.000000 0.000000
vt 0.066198 0.000000
vt 0.942363 0.000000
vt 1.000000 0.000000
vt 1.000000 1.000000
vt 0.942363 1.000000
vt 0.928094 0.000000
vt 1.000000 0.000000
vt 1.000000 1.000000
vt 0.928094 1.000000
vt 0.948071 0.000000
vt 1.000000 0.000000
vt 1.000000 1.000000
vt 0.948071 1.000000
vt 0.933802 0.000000
vt 1.000000 0.000000
vt 1.000000 1.000000
vt 0.933802 1.000000
vt 0.960826 0.951127
vt 0.991786 0.938342
vt 0.981537 0.976966
vt 0.952612 0.987214
vt 0.051929 0.000000
vt 0.051929 0.071906
vt 0.000000 0.071906
vt 0.000000 0.000000
vt 0.051929 1.000000
vt 0.051929 0.000000
vt 0.057637 1.000000
vt 0.000000 1.000000
vt 0.000000 0.000000
vt 0.057637 0.000000
vt 0.942363 0.928094
vt 0.940679 0.999864
vt 0.053614 0.999864
vt 0.051929 0.928094
vt 0.942363 0.933802
vt 1.000000 0.933802
vt 1.000000 1.000000
vt 0.942363 1.000000
vt 0.051929 0.933802
vt 0.051929 1.000000
vt 0.000000 1.000000
vt 0.000000 0.000000
vt 0.033731 0.043000
vt 0.008000 0.056001
vt 0.018198 0.023198
vt 0.041731 0.013000
vt 0.066198 1.000000
vt 0.000000 1.000000
vt 0.000000 0.000000
vt 0.066198 0.000000
vt 0.071906 1.000000
vt 0.071906 0.000000
vt 0.961819 0.043853
vt 0.952764 0.011945
vt 0.980545 0.022345
vt 0.990945 0.055798
vt 0.000000 1.000000
vt 0.000000 0.933802
vt 0.051929 0.066198
vt 0.053481 0.000116
vt 0.940811 0.000116
vt 0.942363 0.066198
vt 0.942363 0.071906
vt 1.000000 0.071906
vt 0.051929 0.933802
vt 0.051929 0.071906
vt 0.942363 0.071906
vt 0.942363 0.933802
vt 0.000076 0.926833
vt 0.000076 0.067459
vt 0.999906 0.067597
vt 0.999906 0.926696
vt 0.034763 0.951863
vt 0.041961 0.986198
vt 0.017165 0.976231
vt 0.007198 0.938061
vt 0.000000 1.000000
vt 0.000000 0.000000
vt 0.942363 0.000000
vt 1.000000 0.000000
vt 0.000000 0.000000
vt 1.000000 0.000000
vt 1.000000 1.000000
vt 0.000000 1.000000
vt 0.000000 0.000000
vt 1.000000 0.000000
vt 1.000000 1.000000
vt 0.000000 1.000000
vt 0.000000 0.000000
vt 1.000000 0.000000
vt 1.000000 1.000000
vt 0.000000 1.000000
vt 0.000000 0.000000
vt 1.000000 0.000000
vt 1.000000 1.000000
vt 0.000000 1.000000
vt 0.981537 0.976966
vt 0.991786 0.938342
vt 1.000000 0.928094
vt 0.942363 1.000000
vt 0.952612 0.987214
vt 0.942363 0.928094
vt 0.942363 0.928094
vt 0.051929 0.928094
vt 0.051929 0.928094
vt 0.051929 1.000000
vt 0.053614 0.999864
vt 0.940679 0.999864
vt 0.000000 0.000000
vt 0.018198 0.023198
vt 0.008000 0.056001
vt 0.000000 0.066198
vt 0.051929 0.000000
vt 0.041731 0.013000
vt 1.000000 0.000000
vt 0.980545 0.022345
vt 0.952764 0.011945
vt 0.942363 0.000000
vt 1.000000 0.066198
vt 0.990945 0.055798
vt 0.051929 0.066198
vt 0.051929 0.066198
vt 0.942363 0.066198
vt 0.942363 0.066198
vt 0.940811 0.000116
vt 0.053481 0.000116
vt 0.000076 0.067459
vt 0.000076 0.926833
vt 0.000000 0.928094
vt 0.999906 0.926696
vt 0.999906 0.067597
vt 0.017165 0.976231
vt 0.041961 0.986198
vt 0.007198 0.938061
vt 0.051929 0.000000
vt 0.000000 0.071906
vt 1.000000 1.000000
vt 1.000000 0.933802
vt 0.942363 1.000000
vt 0.051929 1.000000
vt 0.000000 1.000000
vt 0.000000 0.933802
vt 1.000000 0.071906
vt 0.942363 0.000000
vt 0.942363 0.000000
vt 1.000000 0.000000
vt 1.000000 1.000000
vt 0.942363 1.000000
vt 0.928094 0.000000
vt 1.000000 0.000000
vt 1.000000 1.000000
vt 0.928094 1.000000
vt 0.948071 0.000000
vt 1.000000 0.000000
vt 1.000000 1.000000
vt 0.948071 1.000000
vt 0.933802 0.000000
vt 1.000000 0.000000
vt 1.000000 1.000000
vt 0.933802 1.000000
vt 0.960826 0.951127
vt 0.991786 0.938342
vt 0.981537 0.976966
vt 0.952612 0.987214
vt 0.051929 0.000000
vt 0.051929 0.071906
vt 0.000000 0.071906
vt 0.000000 0.000000
vt 0.051929 1.000000
vt 0.051929 0.000000
vt 0.057637 1.000000
vt 0.000000 1.000000
vt 0.000000 0.000000
vt 0.057637 0.000000
vt 0.942363 0.928094
vt 0.940679 0.999864
vt 0.053614 0.999864
vt 0.051929 0.928094
vt 0.942363 0.933802
vt 1.000000 0.933802
vt 1.000000 1.000000
vt 0.942363 1.000000
vt 0.051929 0.933802
vt 0.051929 1.000000
vt 0.000000 1.000000
vt 0.000000 0.000000
vt 0.033731 0.043000
vt 0.008000 0.056001
vt 0.018198 0.023198
vt 0.041731 0.013000
vt 0.066198 1.000000
vt 0.000000 1.000000
vt 0.000000 0.000000
vt 0.066198 0.000000
vt 0.071906 1.000000
vt 0.071906 0.000000
vt 0.961819 0.043853
vt 0.952764 0.011945
vt 0.980545 0.022345
vt 0.990945 0.055798
vt 0.000000 1.000000
vt 0.000000 0.933802
vt 0.051929 0.066198
vt 0.053481 0.000116
vt 0.940811 0.000116
vt 0.942363 0.066198
vt 0.942363 0.071906
vt 1.000000 0.071906
vt 0.000076 0.926833
vt 0.000076 0.067459
vt 0.999906 0.067597
vt 0.999906 0.926696
vt 0.034763 0.951863
vt 0.041961 0.986198
vt 0.017165 0.976231
vt 0.007198 0.938061
vt 0.000000 1.000000
vt 0.942363 0.000000
vt 0.000000 0.000000
vt 1.000000 0.000000
vt 1.000000 1.000000
vt 0.000000 1.000000
vt 0.000000 0.000000
vt 1.000000 0.000000
vt 1.000000 1.000000
vt 0.000000 1.000000
vt 0.000000 0.000000
vt 1.000000 0.000000
vt 1.000000 1.000000
vt 0.000000 1.000000
vt 0.000000 0.000000
vt 1.000000 0.000000
vt 1.000000 1.000000
vt 0.000000 1.000000
vt 0.981537 0.976966
vt 0.991786 0.938342
vt 1.000000 0.928094
vt 0.942363 1.000000
vt 0.952612 0.987214
vt 0.942363 0.928094
vt 0.942363 0.928094
vt 0.051929 0.928094
vt 0.051929 0.928094
vt 0.051929 1.000000
vt 0.053614 0.999864
vt 0.940679 0.999864
vt 0.000000 0.000000
vt 0.018198 0.023198
vt 0.008000 0.056001
vt 0.000000 0.066198
vt 0.051929 0.000000
vt 0.041731 0.013000
vt 1.000000 0.000000
vt 0.980545 0.022345
vt 0.952764 0.011945
vt 0.942363 0.000000
vt 1.000000 0.066198
vt 0.990945 0.055798
vt 0.051929 0.066198
vt 0.051929 0.066198
vt 0.942363 0.066198
vt 0.942363 0.066198
vt 0.940811 0.000116
vt 0.053481 0.000116
vt 0.000076 0.067459
vt 0.000076 0.926833
vt 0.000000 0.928094
vt 0.999906 0.926696
vt 0.999906 0.067597
vt 0.017165 0.976231
vt 0.041961 0.986198
vt 0.007198 0.938061
vn 0.0000 0.0000 1.0000
vn 0.0000 1.0000 0.0000
vn 0.0000 -1.0000 0.0000
vn 0.0000 0.0000 -1.0000
vn 1.0000 0.0000 0.0000
vn -1.0000 0.0000 0.0000
vn 0.7071 0.0000 0.7071
vn 0.7071 -0.7071 0.0000
vn 0.7071 0.7071 0.0000
vn 0.7071 0.0000 -0.7071
vn -0.7071 0.0000 0.7071
vn -0.7071 0.7071 0.0000
vn -0.7071 -0.7071 0.0000
vn -0.7071 0.0000 -0.7071
usemtl Default_OBJ.003
s off
f 3/1/1 4/2/1 5/3/1 6/4/1
f 9/5/1 2/6/1 1/7/1 10/8/1
f 6/4/1 9/5/1 10/8/1 3/1/1
f 1/9/1 8/10/1 7/11/1 10/12/1
f 10/12/1 7/11/1 11/13/1 3/14/1
f 3/14/1 11/13/1 12/15/1 4/2/1
f 15/16/1 16/17/1 17/18/1 18/19/1
f 20/20/1 14/21/1 13/22/1 19/23/1
f 18/19/1 20/20/1 19/23/1 15/16/1
f 21/24/2 22/25/2 23/26/2 24/27/2
f 25/28/1 26/29/1 27/30/1 28/31/1
f 29/32/3 30/33/3 31/34/3 32/35/3
f 33/36/4 34/37/4 35/38/4 36/39/4
f 37/40/5 38/41/5 39/42/5 40/43/5
f 41/44/6 42/45/6 43/46/6 44/47/6
f 24/27/2 45/48/2 46/49/2 21/24/2
f 47/50/3 27/51/3 26/52/3 48/53/3
f 37/54/5 40/55/5 49/56/5 50/57/5
f 51/58/6 52/59/6 53/60/6 54/61/6
f 32/35/3 47/50/3 48/53/3 29/32/3
f 55/62/6 51/58/6 54/61/6 56/63/6
f 45/48/2 35/64/2 34/65/2 46/49/2
f 57/66/5 58/67/5 59/68/5 60/69/5
f 61/70/1 23/71/1 22/72/1 62/73/1
f 36/39/4 63/74/4 64/75/4 33/36/4
f 65/76/5 66/77/5 67/78/5 68/79/5
f 55/62/6 56/63/6 69/80/6 70/81/6
f 57/82/5 60/83/5 66/84/5 65/85/5
f 51/58/6 71/86/6 72/87/6 52/59/6
f 73/88/6 74/89/6 75/90/6 76/91/6
f 57/82/5 50/57/5 77/92/5 58/93/5
f 28/31/1 61/70/1 62/73/1 25/28/1
f 37/54/5 65/85/5 68/94/5 38/95/5
f 42/45/6 55/62/6 70/81/6 43/46/6
f 50/96/5 49/97/5 78/98/5 77/99/5
f 63/74/4 31/100/4 30/101/4 64/75/4
f 71/86/6 79/102/6 80/103/6 72/87/6
f 42/45/6 41/44/6 79/102/6 71/86/6
f 81/104/4 74/105/4 73/106/4 82/107/4
f 83/108/3 75/109/3 74/110/3 81/111/3
f 84/112/1 76/113/1 75/114/1 83/115/1
f 82/116/2 73/117/2 76/118/2 84/119/2
f 27/30/7 85/120/7 86/121/7 28/122/7
f 47/123/8 87/124/8 85/120/8 27/30/8
f 83/125/9 88/126/9 89/127/9 81/128/9
f 32/129/8 90/130/8 87/131/8 47/123/8
f 35/132/10 91/133/10 92/134/10 36/135/10
f 45/136/9 93/137/9 91/133/9 35/132/9
f 23/138/9 94/139/9 95/140/9 24/141/9
f 61/142/7 96/143/7 94/139/7 23/138/7
f 82/144/8 97/145/8 98/146/8 84/147/8
f 24/141/9 95/148/9 93/149/9 45/136/9
f 81/128/7 89/127/7 97/145/7 82/144/7
f 36/135/10 92/150/10 99/151/10 63/152/10
f 84/147/10 98/146/10 88/126/10 83/125/10
f 28/122/7 86/153/7 96/154/7 61/142/7
f 31/100/8 100/155/8 90/156/8 32/129/8
f 63/152/10 99/157/10 100/155/10 31/100/10
f 85/120/1 39/42/1 38/41/1 86/121/1
f 87/124/1 40/43/1 39/42/1 85/120/1
f 88/126/1 37/54/1 50/57/1 89/127/1
f 90/130/1 49/56/1 40/55/1 87/131/1
f 91/133/1 59/68/1 58/67/1 92/134/1
f 93/137/1 60/69/1 59/68/1 91/133/1
f 94/139/1 67/78/1 66/77/1 95/140/1
f 96/143/1 68/79/1 67/78/1 94/139/1
f 97/145/1 57/82/1 65/85/1 98/146/1
f 95/148/1 66/84/1 60/83/1 93/149/1
f 89/127/1 50/57/1 57/82/1 97/145/1
f 92/150/1 58/93/1 77/92/1 99/151/1
f 98/146/1 65/85/1 37/54/1 88/126/1
f 86/153/1 38/95/1 68/94/1 96/154/1
f 100/155/1 78/98/1 49/97/1 90/156/1
f 99/157/1 77/99/1 78/98/1 100/155/1
f 29/158/3 41/44/3 44/47/3 30/101/3
f 30/101/4 44/47/4 43/46/4 64/159/4
f 22/160/1 53/60/1 52/59/1 62/161/1
f 21/162/2 54/61/2 53/60/2 22/160/2
f 76/91/3 51/58/3 55/62/3 73/88/3
f 46/163/2 56/63/2 54/61/2 21/162/2
f 34/164/2 69/80/2 56/63/2 46/163/2
f 33/165/4 70/81/4 69/80/4 34/164/4
f 75/90/4 71/86/4 51/58/4 76/91/4
f 62/161/1 52/59/1 72/87/1 25/166/1
f 73/88/1 55/62/1 42/45/1 74/89/1
f 64/159/4 43/46/4 70/81/4 33/165/4
f 26/29/3 80/103/3 79/102/3 48/167/3
f 25/166/1 72/87/1 80/103/1 26/29/1
f 74/89/2 42/45/2 71/86/2 75/90/2
f 48/167/3 79/102/3 41/44/3 29/158/3
f 101/168/3 102/169/3 103/170/3 104/171/3
f 105/172/1 106/173/1 107/174/1 108/175/1
f 109/176/2 110/177/2 111/178/2 112/179/2
f 113/180/4 114/181/4 115/182/4 116/183/4
f 117/184/6 118/185/6 119/186/6 120/187/6
f 109/188/5 121/189/5 122/190/5 110/191/5
f 104/171/3 123/192/3 124/193/3 101/168/3
f 125/194/2 107/195/2 106/196/2 126/197/2
f 117/198/6 120/199/6 127/200/6 128/201/6
f 129/202/5 130/203/5 102/204/5 101/205/5
f 112/179/2 125/194/2 126/197/2 109/176/2
f 131/206/5 129/202/5 101/205/5 124/207/5
f 123/192/3 115/208/3 114/209/3 124/193/3
f 132/210/6 133/211/6 134/212/6 135/213/6
f 136/214/1 103/215/1 102/216/1 130/217/1
f 116/183/4 137/218/4 122/219/4 113/180/4
f 138/220/6 139/221/6 140/222/6 141/223/6
f 131/206/5 124/207/5 114/224/5 113/225/5
f 132/226/6 135/227/6 139/228/6 138/229/6
f 129/202/5 142/230/5 105/231/5 130/203/5
f 131/206/5 121/189/5 142/230/5 129/202/5
f 132/226/6 128/201/6 143/232/6 133/233/6
f 108/175/1 136/214/1 130/217/1 105/172/1
f 117/198/6 138/229/6 141/234/6 118/235/6
f 121/189/5 131/206/5 113/225/5 122/190/5
f 128/236/6 127/237/6 144/238/6 143/239/6
f 137/218/4 111/240/4 110/191/4 122/219/4
f 142/230/5 126/241/5 106/173/5 105/231/5
f 121/189/5 109/188/5 126/241/5 142/230/5
f 145/242/4 121/243/4 131/244/4 146/245/4
f 147/246/2 142/247/2 121/248/2 145/249/2
f 148/250/1 129/251/1 142/252/1 147/253/1
f 146/254/3 131/255/3 129/256/3 148/257/3
f 107/174/11 149/258/11 150/259/11 108/260/11
f 125/261/12 151/262/12 149/258/12 107/174/12
f 147/263/13 152/264/13 153/265/13 145/266/13
f 112/267/12 154/268/12 151/269/12 125/261/12
f 115/270/14 155/271/14 156/272/14 116/273/14
f 123/274/13 157/275/13 155/271/13 115/270/13
f 103/276/13 158/277/13 159/278/13 104/279/13
f 136/280/11 160/281/11 158/277/11 103/276/11
f 146/282/12 161/283/12 162/284/12 148/285/12
f 104/279/13 159/286/13 157/287/13 123/274/13
f 145/266/11 153/265/11 161/283/11 146/282/11
f 116/273/14 156/288/14 163/289/14 137/290/14
f 148/285/14 162/284/14 152/264/14 147/263/14
f 108/260/11 150/291/11 160/292/11 136/280/11
f 111/240/12 164/293/12 154/294/12 112/267/12
f 137/290/14 163/295/14 164/293/14 111/240/14
f 149/258/1 119/186/1 118/185/1 150/259/1
f 151/262/1 120/187/1 119/186/1 149/258/1
f 152/264/1 117/198/1 128/201/1 153/265/1
f 154/268/1 127/200/1 120/199/1 151/269/1
f 155/271/1 134/212/1 133/211/1 156/272/1
f 157/275/1 135/213/1 134/212/1 155/271/1
f 158/277/1 140/222/1 139/221/1 159/278/1
f 160/281/1 141/223/1 140/222/1 158/277/1
f 161/283/1 132/226/1 138/229/1 162/284/1
f 159/286/1 139/228/1 135/227/1 157/287/1
f 153/265/1 128/201/1 132/226/1 161/283/1
f 156/288/1 133/233/1 143/232/1 163/289/1
f 162/284/1 138/229/1 117/198/1 152/264/1
f 150/291/1 118/235/1 141/234/1 160/292/1
f 164/293/1 144/238/1 127/237/1 154/294/1
f 163/295/1 143/239/1 144/238/1 164/293/1
