# Blender v2.81 (sub 16) OBJ File: ''
# www.blender.org
mtllib cabinWindow.mtl
o WoodCabin.001
v 15.991233 -33.843933 14.771172
v 10.792472 -33.843933 14.771172
v 7.872691 -33.843933 23.837259
v 7.654309 -33.843933 14.771172
v 15.991233 -34.396584 14.771172
v 8.152108 -33.843933 23.221163
v 8.152108 -34.315895 23.219864
v 7.997422 -33.843933 23.221163
v 15.809304 -33.843933 23.980062
v 12.214685 -33.843933 23.992735
v 7.654310 -34.453117 14.752647
v 10.811484 -34.170177 14.845355
v 10.966607 -34.170177 15.450653
v 15.521576 -34.317249 23.221050
v 15.828690 -34.310173 23.981579
v 14.608815 -34.310173 23.220903
v 12.227895 -34.562637 23.978067
v 7.872797 -34.310173 23.809538
v 12.034534 -34.562637 23.128702
v 14.629051 -32.328217 23.220903
v 12.035175 -32.050907 23.128702
v 7.872746 -32.945225 23.974569
v 15.818996 -32.945225 23.974569
v 12.161407 -32.945225 24.066771
v 15.991234 -32.945225 14.771172
v 7.654310 -32.945225 14.761909
v 10.811484 -32.472881 14.845355
v 8.152108 -32.246471 23.220514
v 7.872745 -32.246471 23.974569
v 8.969511 -32.249023 23.220903
v 7.654310 -32.246471 14.761909
v 15.991233 -33.843933 15.539417
v 12.161409 -31.994007 24.066771
v 15.818997 -32.246471 23.974569
v 15.709111 -33.843933 15.533965
v 15.521600 -33.843933 23.220297
v 15.165861 -34.396584 15.524837
v 15.165861 -32.455219 15.524837
v 10.966607 -32.472881 15.450653
v 8.777693 -32.246471 15.524837
v 15.886722 -33.843933 23.220297
v 15.991233 -32.246471 14.771172
v 8.992617 -34.310173 23.220903
v 7.997422 -34.315895 23.219864
v 8.191992 -32.945225 15.546175
v 8.152107 -32.945225 23.220514
v 8.777693 -34.396584 15.524837
v 15.886698 -34.317249 23.221050
v 8.192789 -33.843933 15.543261
v 8.191992 -32.378590 15.546174
v 7.858782 -32.945225 15.546175
v 15.522266 -32.945225 23.220675
v 15.696133 -32.945225 15.539417
v 15.522266 -32.246471 23.220675
v 15.886711 -32.945225 23.220675
v 15.991233 -34.441086 15.539417
v 15.886709 -32.246471 23.220675
v 15.709024 -34.192326 15.534776
v 7.858757 -34.367298 15.560941
v 7.858806 -33.843933 15.554411
v 8.192746 -34.254913 15.549088
v 7.997422 -32.246471 23.220514
v 7.997421 -32.945225 23.220514
v 7.858782 -32.378590 15.546174
v 15.696132 -32.475010 15.539417
v 15.991233 -32.475010 15.539417
v 15.991234 -32.945225 15.539417
vt 0.597465 0.613079
vt 0.604052 0.710117
vt 0.594034 0.710846
vt 0.633048 0.555887
vt 0.631874 0.564916
vt 0.630089 0.555502
vt 0.608416 0.559051
vt 0.598253 0.556925
vt 0.591238 0.613023
vt 0.579528 0.615450
vt 0.641439 0.703813
vt 0.627497 0.711429
vt 0.639391 0.686254
vt 0.605978 0.645253
vt 0.608520 0.562636
vt 0.619516 0.644417
vt 0.617402 0.562892
vt 0.634234 0.639733
vt 0.678555 0.683862
vt 0.675954 0.635396
vt 0.520116 0.710813
vt 0.524100 0.551160
vt 0.532039 0.611209
vt 0.669049 0.564307
vt 0.682968 0.557439
vt 0.670688 0.579999
vt 0.536349 0.551275
vt 0.692821 0.636385
vt 0.695123 0.706219
vt 0.710848 0.635091
vt 0.708782 0.706613
vt 0.456226 0.270166
vt 0.459474 0.270229
vt 0.454068 0.358648
vt 0.580129 0.696187
vt 0.546563 0.695786
vt 0.544389 0.614735
vt 0.547846 0.572105
vt 0.649328 0.710606
vt 0.649627 0.719768
vt 0.642558 0.719999
vt 0.532825 0.711222
vt 0.618679 0.712713
vt 0.629113 0.567509
vt 0.630176 0.583688
vt 0.618067 0.553905
vt 0.628914 0.564532
vt 0.922419 0.582174
vt 0.927783 0.712827
vt 0.915887 0.713315
vt 0.865901 0.582261
vt 0.902536 0.582410
vt 0.901962 0.713581
vt 0.696011 0.555022
vt 0.627773 0.720464
vt 0.642260 0.710836
vt 0.844483 0.712932
vt 0.848645 0.582174
vt 0.852521 0.713166
vt 0.559436 0.562460
vt 0.549536 0.561715
vt 0.559874 0.556639
vt 0.838048 0.582692
vt 0.844441 0.713541
vt 0.836387 0.713947
vt 0.760007 0.712522
vt 0.772155 0.582174
vt 0.771862 0.713627
vt 0.697386 0.719813
vt 0.682661 0.722265
vt 0.594817 0.720806
vt 0.580971 0.721894
vt 0.580126 0.711132
vt 0.679855 0.701504
vt 0.680397 0.708671
vt 0.542093 0.540464
vt 0.554633 0.547127
vt 0.575911 0.705793
vt 0.569621 0.705454
vt 0.584007 0.559151
vt 0.581818 0.550417
vt 0.581616 0.564726
vt 0.574567 0.564160
vt 0.583233 0.574962
vt 0.855641 0.582496
vt 0.912772 0.582570
vt 0.832119 0.582996
vt 0.820863 0.714906
vt 0.668740 0.561337
vt 0.675571 0.723446
vt 0.673307 0.709852
vt 0.365857 0.270402
vt 0.369701 0.270274
vt 0.367452 0.358658
vt 0.665860 0.562126
vt 0.662296 0.549118
vt 0.665176 0.548329
vt 0.679404 0.544431
vt 0.549974 0.555893
vt 0.547219 0.705411
vt 0.789161 0.583455
vt 0.822240 0.583430
vt 0.787091 0.714907
vt 0.780132 0.582917
vt 0.547385 0.710772
vt 0.369692 0.270307
vt 0.365856 0.270307
vt 0.369233 0.358651
vt 0.555763 0.705146
vt 0.555929 0.710508
vt 0.550073 0.718884
vt 0.536820 0.723276
vt 0.459474 0.270229
vt 0.456077 0.270229
vt 0.454075 0.358653
vt 0.458271 0.358648
vt 0.866840 0.713448
vt 0.569345 0.710548
vt 0.595284 0.546869
vt 0.575031 0.558429
vt 0.369233 0.358658
vt 0.367452 0.358651
vt 0.458271 0.358653
vn 0.0000 0.0000 -1.0000
vn 0.0000 0.0028 -1.0000
vn 0.0000 0.0304 -0.9995
vn 0.0899 -0.9957 -0.0230
vn -0.0008 -1.0000 0.0096
vn -0.0006 -1.0000 0.0095
vn -0.0078 -0.9999 0.0125
vn -0.0435 -0.9990 0.0112
vn -0.0358 -0.0210 0.9991
vn -0.0584 -0.9982 0.0133
vn 0.0355 -0.0004 -0.9994
vn 0.0356 -0.0002 -0.9994
vn 0.0357 -0.0002 -0.9994
vn 0.0011 0.1669 -0.9860
vn 0.0009 1.0000 -0.0000
vn 0.0006 1.0000 0.0002
vn 0.0031 1.0000 0.0010
vn 0.0264 0.0000 -0.9997
vn 0.0670 0.9953 -0.0694
vn 0.0252 -0.0000 0.9997
vn 0.0000 -1.0000 0.0000
vn -0.0177 0.0000 0.9998
vn 0.0339 0.0000 0.9994
vn -0.0301 0.0000 -0.9995
vn -0.0302 -0.0001 -0.9995
vn -0.0302 -0.0002 -0.9995
vn 0.0000 -0.0016 -1.0000
vn 0.0720 0.9972 -0.0185
vn -0.0435 0.9990 0.0111
vn 0.0035 -0.0203 0.9998
vn 0.0020 -0.9999 0.0099
vn 0.0068 -0.9999 0.0125
vn 0.0013 -0.9999 0.0103
vn -0.9801 0.0005 -0.1984
vn -1.0000 0.0000 -0.0052
vn 0.9996 0.0086 -0.0273
vn 0.9997 0.0000 -0.0249
vn 0.9997 0.0026 -0.0256
vn -0.0215 0.0000 0.9998
vn 0.9948 0.0001 0.1014
vn -1.0000 0.0000 -0.0053
vn 0.0000 0.0000 1.0000
vn 0.9997 -0.0002 0.0244
vn 0.9997 -0.0000 0.0244
vn -0.2001 0.9345 0.2946
vn 0.9997 0.0000 0.0226
vn 0.9960 0.0000 0.0895
vn 1.0000 0.0000 0.0000
vn 0.0000 1.0000 -0.0000
vn -0.9677 0.0000 0.2523
vn -0.0527 -0.9969 -0.0577
vn -0.0177 -0.0014 0.9998
vn -0.0162 0.0023 0.9999
vn -0.0153 0.0019 0.9999
vn 0.0000 -1.0000 0.0097
vn 0.0000 -1.0000 0.0093
vn -0.0576 0.9969 -0.0527
vn 0.0699 -0.9974 -0.0159
vn -0.9693 0.0019 0.2458
vn -0.9695 0.0031 0.2449
vn -0.9677 -0.0067 0.2519
vn 0.0307 0.0142 0.9994
vn 0.0310 0.0140 0.9994
vn 0.0333 0.0125 0.9994
vn -0.0272 -0.9933 0.1123
vn -0.2357 -0.9718 -0.0090
vn 0.0389 -0.0103 0.9992
vn -0.0911 0.9952 0.0358
vn -0.0177 -0.0015 0.9998
vn -0.2206 0.9752 -0.0179
vn -0.0077 -0.9998 -0.0164
vn -0.9866 0.0000 -0.1631
vn 0.0000 0.9861 0.1661
vn 0.0275 0.9552 0.2947
vn -0.9976 0.0000 -0.0696
vn -0.9974 0.0078 -0.0717
vn -0.9975 0.0024 -0.0702
vn -0.0911 0.9953 -0.0317
vn 0.0000 0.9585 0.2851
vn -0.0237 -0.2230 -0.9745
vn 0.0482 -0.2188 -0.9746
vn 0.1002 -0.9923 -0.0731
vn -0.0420 -0.0593 0.9974
vn -0.0865 -0.9826 -0.1646
vn 0.0358 -0.0000 -0.9994
vn -0.0143 -0.0000 -0.9999
vn 0.1119 0.9534 -0.2801
vn -0.0303 -0.0003 -0.9995
vn 0.0970 0.9850 -0.1429
vn -0.0086 0.9661 0.2581
vn -0.0012 0.0032 1.0000
vn -0.9783 0.0121 -0.2069
vn 0.9995 0.0112 -0.0280
vn 0.9963 0.0417 0.0756
vn -0.0193 0.0000 0.9998
vn -0.0672 0.9926 -0.1011
vn 0.1021 -0.9812 -0.1637
vn -0.9675 -0.0077 0.2526
vn 0.0334 0.0125 0.9994
vn 0.0068 -0.9999 0.0110
vn 0.0031 1.0000 0.0003
vn 0.3512 -0.9356 0.0359
vn -0.9973 0.0102 -0.0723
vn 0.0377 0.9992 -0.0139
usemtl CabinMat
s 1
f 2/1/1 1/2/1 5/3/1
f 6/4/2 7/5/2 8/6/2
f 4/7/3 2/1/3 11/8/3
f 11/8/4 12/9/4 13/10/4
f 14/11/5 15/12/6 16/13/7
f 12/9/8 5/3/8 13/10/8
f 10/14/9 3/15/9 17/16/9
f 17/16/10 18/17/10 19/18/10
f 20/19/11 16/13/12 21/20/13
f 25/21/14 26/22/14 27/23/14
f 28/24/15 29/25/16 30/26/17
f 26/22/18 31/27/18 27/23/18
f 33/28/19 34/29/19 21/20/19
f 24/30/20 23/31/20 33/28/20
f 35/32/21 32/33/21 36/34/21
f 37/35/22 38/36/22 39/37/22
f 13/10/23 39/37/23 40/38/23
f 21/20/24 19/18/25 30/26/26
f 14/39/27 36/40/27 41/41/27
f 27/23/28 31/27/28 39/37/28
f 42/42/29 27/23/29 39/37/29
f 9/43/30 10/14/30 17/16/30
f 7/44/31 43/45/32 18/17/33
f 3/46/34 8/6/34 44/47/34
f 45/48/35 46/49/35 28/50/35
f 47/51/36 40/52/37 30/53/38
f 22/54/39 24/30/39 33/28/39
f 41/41/40 9/55/40 48/56/40
f 6/57/41 49/58/41 7/59/41
f 45/60/42 50/61/42 51/62/42
f 35/63/43 36/64/44 14/65/44
f 31/27/45 50/61/45 40/38/45
f 52/66/46 53/67/46 54/68/46
f 23/69/47 55/70/47 34/29/47
f 1/71/48 32/72/48 56/73/48
f 54/74/49 34/29/49 57/75/49
f 26/76/50 51/77/50 31/27/50
f 56/73/51 37/35/51 5/3/51
f 58/78/52 56/73/53 35/79/54
f 44/47/55 7/44/31 18/17/33
f 15/12/6 14/11/5 48/56/56
f 29/25/57 33/28/57 21/20/57
f 15/12/58 17/16/58 19/18/58
f 11/8/59 59/80/60 60/81/61
f 61/82/62 49/83/63 59/80/64
f 59/80/65 11/8/65 47/84/65
f 7/59/66 61/85/66 47/51/66
f 47/84/67 61/82/67 59/80/67
f 34/29/68 54/74/68 20/19/68
f 37/35/69 56/73/53 58/78/52
f 50/86/70 28/50/70 40/52/70
f 58/87/71 14/65/71 16/88/71
f 29/25/16 28/24/15 62/89/49
f 52/90/1 54/91/1 55/70/1
f 60/92/21 49/93/21 8/94/21
f 28/95/1 46/96/1 63/97/1
f 63/97/72 22/98/72 62/89/72
f 50/61/73 31/27/73 64/99/73
f 65/100/74 42/42/74 38/36/74
f 38/101/75 37/102/76 20/103/77
f 54/68/78 65/104/78 20/103/78
f 42/42/79 65/100/79 66/105/79
f 45/106/49 51/107/49 46/108/49
f 65/100/42 53/109/42 67/110/42
f 67/111/48 25/112/48 42/42/48
f 67/113/49 53/114/49 52/115/49
f 12/9/80 2/1/80 5/3/80
f 7/5/2 44/47/2 8/6/2
f 2/1/81 12/9/81 11/8/81
f 47/84/82 11/8/82 13/10/82
f 5/3/51 37/35/51 13/10/51
f 3/15/83 18/17/83 17/16/83
f 18/17/84 43/45/84 19/18/84
f 16/13/12 19/18/85 21/20/13
f 42/42/86 25/21/86 27/23/86
f 34/29/87 20/19/87 21/20/87
f 23/31/20 34/29/20 33/28/20
f 32/33/21 41/116/21 36/34/21
f 13/10/22 37/35/22 39/37/22
f 47/84/23 13/10/23 40/38/23
f 19/18/25 43/45/88 30/26/26
f 48/56/27 14/39/27 41/41/27
f 31/27/89 40/38/89 39/37/89
f 38/36/90 42/42/90 39/37/90
f 15/12/91 9/43/91 17/16/91
f 18/17/92 3/46/92 44/47/92
f 50/86/35 45/48/35 28/50/35
f 43/117/93 47/51/36 30/53/38
f 29/25/39 22/54/39 33/28/39
f 9/55/94 15/12/94 48/56/94
f 49/58/41 61/85/41 7/59/41
f 50/61/42 64/99/42 51/62/42
f 58/87/43 35/63/43 14/65/44
f 53/67/46 65/104/46 54/68/46
f 55/70/47 57/75/47 34/29/47
f 5/3/48 1/71/48 56/73/48
f 51/77/50 64/99/50 31/27/50
f 56/73/53 32/118/95 35/79/54
f 30/26/96 29/25/96 21/20/96
f 16/13/97 15/12/97 19/18/97
f 4/119/98 11/8/59 60/81/61
f 49/83/63 60/120/99 59/80/64
f 43/117/32 7/59/31 47/51/100
f 28/50/15 30/53/17 40/52/101
f 37/102/102 58/87/102 16/88/102
f 54/91/1 57/75/1 55/70/1
f 49/93/21 6/121/21 8/94/21
f 62/89/1 28/95/1 63/97/1
f 22/98/72 29/25/72 62/89/72
f 37/102/76 16/88/103 20/103/77
f 65/104/104 38/101/104 20/103/104
f 51/107/49 63/122/49 46/108/49
f 66/105/42 65/100/42 67/110/42
f 66/105/48 67/111/48 42/42/48
f 55/123/49 67/113/49 52/115/49
