o roofCorner
v 0.000000 10.000000 0.000000
v 0.000000 5.000000 0.000000
v 5.000000 5.000000 0.000000
v 5.000000 10.000000 0.000000
v 5.000000 5.000000 10.000000
v 5.000000 5.000000 0.000000
v 0.000000 5.000000 0.000000
v 0.000000 0.000000 0.000000
v 5.000000 0.000000 0.000000
v 5.000000 5.000000 10.000000
v 5.000000 0.000000 10.000000
v 10.000000 0.000000 0.000000
v 10.000000 5.000000 0.000000
v 5.000000 5.000000 0.000000
v 5.000000 0.000000 0.000000
v 5.000000 0.000000 10.000000
v 5.000000 5.000000 10.000000
v 10.000000 5.000000 10.000000
v 10.000000 5.000000 0.000000
v 10.000000 10.000000 0.000000
v 5.000000 10.000000 0.000000
v 5.000000 5.000000 0.000000
v 10.000000 5.000000 10.000000
v 5.000000 5.000000 10.000000
vn 0.0000 0.0000 1.0000
vn 0.0000 -0.8944 -0.4472
vn 0.8944 0.0000 -0.4472
vn 0.0000 1.0000 0.0000
vn -1.0000 0.0000 0.0000
vn 0.0000 -1.0000 0.0000
vn -0.8944 0.0000 0.4472
vn 0.0000 0.8944 -0.4472
vn -0.8944 0.0000 -0.4472
vn 1.0000 0.0000 0.0000
vn 0.0000 0.8944 0.4472
f 1//1 2//1 3//1 4//1
f 4//2 5//2 1//2
f 2//3 1//3 5//3
f 3//4 2//4 5//4
f 4//5 3//5 5//5
f 6//1 7//1 8//1 9//1
f 6//4 7//4 10//4
f 8//6 9//6 11//6
f 6//5 9//5 11//5 10//5
f 7//7 8//7 11//7 10//7
f 12//1 13//1 14//1 15//1
f 15//4 16//4 12//4
f 17//8 18//8 12//8
f 13//5 12//5 18//5
f 17//5 14//5 15//5 16//5
f 17//6 14//6 13//6 18//6
f 17//9 12//9 16//9
f 19//1 20//1 21//1 22//1
f 19//10 20//10 23//10
f 21//5 22//5 24//5
f 19//4 22//4 24//4 23//4
f 20//11 21//11 24//11 23//11
